<svg width="160" height="50" viewBox="0 0 160 50" fill="none" xmlns="http://www.w3.org/2000/svg">
<path fill-rule="evenodd" clip-rule="evenodd" d="M64.9037 24.5986C61.8866 27.6054 61.8866 32.4805 64.9037 35.4873C67.9209 38.4942 72.8127 38.4942 75.8299 35.4873L85.9506 25.4012C88.9678 22.3944 88.9678 17.5193 85.9506 14.5125C82.9334 11.5056 78.0416 11.5056 75.0245 14.5125L64.9037 24.5986ZM76.2206 22.7979V18.4153C76.2206 18.2915 76.2723 18.1732 76.3632 18.0889L80.1087 14.6155C80.3376 14.4032 80.6922 14.4031 80.9212 14.6154L84.6517 18.074C84.7426 18.1584 84.7943 18.2766 84.7943 18.4004V22.7979C84.7943 23.1262 84.5273 23.3923 84.1979 23.3923H81.6481C81.6317 23.3923 81.6183 23.379 81.6183 23.3626V20.777C81.6183 20.7606 81.605 20.7473 81.5885 20.7473H79.2773C79.2609 20.7473 79.2475 20.7606 79.2475 20.777V23.3626C79.2475 23.379 79.2342 23.3923 79.2177 23.3923H76.8171C76.4877 23.3923 76.2206 23.1262 76.2206 22.7979Z" fill="#2A343A"/>
<path d="M0.317505 30.7243V18.4685H2.94129V28.4297H7.54631V30.7243H0.317505Z" fill="#2A343A"/>
<path d="M11.0401 18.4685H13.646V30.7243H11.0401V18.4685Z" fill="#2A343A"/>
<path d="M28.3467 20.3362L26.419 21.9905C25.6813 21.1604 24.7829 20.7453 23.7238 20.7453C22.6886 20.7453 21.814 21.1248 21.1 21.8837C20.398 22.6427 20.047 23.5558 20.047 24.6231C20.047 25.6903 20.4039 26.6094 21.1179 27.3802C21.8319 28.1391 22.7005 28.5186 23.7238 28.5186C24.4378 28.5186 25.1101 28.3229 25.7408 27.9316C26.3714 27.5284 26.6927 27.0185 26.7046 26.4019H23.4026V24.2851H29.7211C29.7211 26.5027 29.1797 28.1629 28.0968 29.2657C27.0259 30.3567 25.5682 30.9022 23.7238 30.9022C21.9627 30.9022 20.4694 30.2915 19.2438 29.07C18.03 27.8367 17.4232 26.3544 17.4232 24.6231C17.4232 22.8799 18.03 21.3975 19.2438 20.1761C20.4694 18.9428 21.9627 18.3262 23.7238 18.3262C24.652 18.3262 25.5147 18.5041 26.3119 18.8598C27.1211 19.2156 27.7993 19.7077 28.3467 20.3362Z" fill="#2A343A"/>
<path d="M40.2137 18.4685H42.8554V30.7243H40.2137V25.7971H35.8407V30.7243H33.2348V18.4685H35.8407V23.4669H40.2137V18.4685Z" fill="#2A343A"/>
<path d="M46.4104 20.8165V18.4685H55.6918V20.8165H52.3719V30.7243H49.7303V20.8165H46.4104Z" fill="#2A343A"/>
<path d="M103.064 18.4685H105.706V30.7243H103.064V25.7971H98.691V30.7243H96.085V18.4685H98.691V23.4669H103.064V18.4685Z" fill="#2A343A"/>
<path d="M113.152 21.9905C112.45 22.7138 112.099 23.5914 112.099 24.6231C112.099 25.6548 112.45 26.5323 113.152 27.2557C113.854 27.9672 114.71 28.3229 115.722 28.3229C116.733 28.3229 117.59 27.9613 118.292 27.2379C119.006 26.5145 119.363 25.6429 119.363 24.6231C119.363 23.5914 119.006 22.7138 118.292 21.9905C117.59 21.2671 116.733 20.9054 115.722 20.9054C114.71 20.9054 113.854 21.2671 113.152 21.9905ZM109.493 24.6231C109.493 22.8799 110.094 21.3975 111.295 20.1761C112.509 18.9428 113.985 18.3262 115.722 18.3262C117.471 18.3262 118.947 18.9428 120.148 20.1761C121.362 21.3975 121.969 22.8799 121.969 24.6231C121.969 26.3544 121.362 27.8367 120.148 29.07C118.935 30.2915 117.459 30.9022 115.722 30.9022C113.985 30.9022 112.509 30.2915 111.295 29.07C110.094 27.8367 109.493 26.3544 109.493 24.6231Z" fill="#2A343A"/>
<path d="M128.917 27.8605C129.345 28.2518 129.845 28.4475 130.416 28.4475C130.987 28.4475 131.481 28.2518 131.897 27.8605C132.326 27.4573 132.54 26.9533 132.54 26.3485V18.4685H135.164V26.3485C135.164 27.7004 134.7 28.7973 133.772 29.6392C132.843 30.4812 131.725 30.9022 130.416 30.9022C129.107 30.9022 127.983 30.4812 127.043 29.6392C126.103 28.7973 125.632 27.7004 125.632 26.3485V18.4685H128.292V26.3485C128.292 26.9651 128.5 27.4691 128.917 27.8605Z" fill="#2A343A"/>
<path d="M138.87 27.1312H141.494C141.518 27.5462 141.69 27.896 142.011 28.1806C142.333 28.4652 142.773 28.6075 143.332 28.6075C143.868 28.6075 144.296 28.489 144.617 28.2518C144.951 28.0146 145.123 27.7004 145.135 27.309C145.147 27.0007 145.046 26.7339 144.832 26.5086C144.629 26.2833 144.237 26.0876 143.653 25.9216L142.172 25.5125C140.054 24.8602 138.995 23.6862 138.995 21.9905C138.995 20.9113 139.399 20.0338 140.209 19.3579C141.018 18.6701 142.023 18.3262 143.225 18.3262C144.439 18.3262 145.432 18.6641 146.206 19.3401C146.991 20.016 147.384 20.9291 147.384 22.0794H144.778C144.778 21.6644 144.641 21.3323 144.367 21.0833C144.094 20.8224 143.701 20.692 143.189 20.692C142.725 20.692 142.345 20.8105 142.047 21.0477C141.75 21.273 141.601 21.5636 141.601 21.9193C141.601 22.5004 142.041 22.9154 142.922 23.1645L144.385 23.627C146.694 24.291 147.818 25.5243 147.759 27.3268C147.747 28.0976 147.521 28.7676 147.08 29.3368C146.64 29.8942 146.093 30.2974 145.438 30.5464C144.796 30.7955 144.094 30.92 143.332 30.92C141.999 30.92 140.923 30.5701 140.102 29.8705C139.281 29.159 138.87 28.2459 138.87 27.1312Z" fill="#2A343A"/>
<path d="M151.525 30.7243V18.4685H159.308V20.7631H154.131V23.5558H158.665V25.8149H154.131V28.4297H159.468V30.7243H151.525Z" fill="#2A343A"/>
</svg>